<svg width="1050" height="1050" viewBox="0 0 1050 1050" fill="none" xmlns="http://www.w3.org/2000/svg">
<g filter="url(#filter0_d)">
<circle cx="525" cy="521" r="500" fill="#333333"/>
<g filter="url(#filter1_d)">
<mask id="path-3-inside-1" fill="white">
<path fill-rule="evenodd" clip-rule="evenodd" d="M266.195 771.969H387.967V405.613H266.195V771.969ZM326.291 355.587H327.085C369.55 355.587 395.978 327.457 395.978 292.301C395.185 256.351 369.55 229 327.893 229C286.237 229 259 256.351 259 292.301C259 327.457 285.428 355.587 326.291 355.587ZM705.297 771.969H827.054V561.901C827.054 449.375 766.98 397.015 686.864 397.015C622.258 397.015 593.305 432.522 577.123 457.485V405.613H455.358C456.952 439.983 455.358 771.969 455.358 771.969H577.123V567.379C577.123 556.431 577.909 545.49 581.128 537.662C589.933 515.789 609.967 493.13 643.605 493.13C687.665 493.13 705.297 526.722 705.297 575.977V771.969Z"/>
</mask>
<path fill-rule="evenodd" clip-rule="evenodd" d="M266.195 771.969H387.967V405.613H266.195V771.969ZM326.291 355.587H327.085C369.55 355.587 395.978 327.457 395.978 292.301C395.185 256.351 369.55 229 327.893 229C286.237 229 259 256.351 259 292.301C259 327.457 285.428 355.587 326.291 355.587ZM705.297 771.969H827.054V561.901C827.054 449.375 766.98 397.015 686.864 397.015C622.258 397.015 593.305 432.522 577.123 457.485V405.613H455.358C456.952 439.983 455.358 771.969 455.358 771.969H577.123V567.379C577.123 556.431 577.909 545.49 581.128 537.662C589.933 515.789 609.967 493.13 643.605 493.13C687.665 493.13 705.297 526.722 705.297 575.977V771.969Z" fill="#F4F4F4"/>
<path d="M387.967 771.969V772.969H388.967V771.969H387.967ZM266.195 771.969H265.195V772.969H266.195V771.969ZM387.967 405.613H388.967V404.613H387.967V405.613ZM266.195 405.613V404.613H265.195V405.613H266.195ZM395.978 292.301H396.978V292.29L396.978 292.279L395.978 292.301ZM827.054 771.969V772.969H828.054V771.969H827.054ZM705.297 771.969H704.297V772.969H705.297V771.969ZM577.123 457.485H576.123V460.866L577.962 458.029L577.123 457.485ZM577.123 405.613H578.123V404.613H577.123V405.613ZM455.358 405.613V404.613H454.31L454.359 405.659L455.358 405.613ZM455.358 771.969L454.358 771.964L454.353 772.969H455.358V771.969ZM577.123 771.969V772.969H578.123V771.969H577.123ZM581.128 537.662L582.053 538.043L582.056 538.036L581.128 537.662ZM387.967 770.969H266.195V772.969H387.967V770.969ZM386.967 405.613V771.969H388.967V405.613H386.967ZM266.195 406.613H387.967V404.613H266.195V406.613ZM267.195 771.969V405.613H265.195V771.969H267.195ZM327.085 354.587H326.291V356.587H327.085V354.587ZM394.978 292.301C394.978 309.622 388.472 325.178 376.764 336.406C365.057 347.633 348.091 354.587 327.085 354.587V356.587C348.543 356.587 366.025 349.476 378.148 337.849C390.271 326.224 396.978 310.137 396.978 292.301H394.978ZM327.893 230C348.496 230 365.059 236.759 376.564 247.888C388.071 259.019 394.587 274.585 394.978 292.323L396.978 292.279C396.576 274.068 389.877 257.983 377.955 246.451C366.03 234.916 348.947 228 327.893 228V230ZM260 292.301C260 274.588 266.705 259.03 278.512 247.897C290.32 236.762 307.287 230 327.893 230V228C306.843 228 289.364 234.914 277.139 246.442C264.913 257.972 258 274.064 258 292.301H260ZM326.291 354.587C285.957 354.587 260 326.882 260 292.301H258C258 328.033 284.9 356.587 326.291 356.587V354.587ZM827.054 770.969H705.297V772.969H827.054V770.969ZM826.054 561.901V771.969H828.054V561.901H826.054ZM686.864 398.015C726.699 398.015 761.459 411.026 786.267 437.938C811.083 464.859 826.054 505.81 826.054 561.901H828.054C828.054 505.466 812.988 463.974 787.738 436.583C762.481 409.183 727.145 396.015 686.864 396.015V398.015ZM577.962 458.029C586.024 445.592 597.223 430.6 614.404 418.711C631.569 406.832 654.76 398.015 686.864 398.015V396.015C654.363 396.015 630.773 404.951 613.266 417.066C595.772 429.172 584.404 444.414 576.284 456.941L577.962 458.029ZM576.123 405.613V457.485H578.123V405.613H576.123ZM455.358 406.613H577.123V404.613H455.358V406.613ZM455.358 771.969C456.358 771.974 456.358 771.972 456.358 771.97C456.358 771.967 456.358 771.963 456.358 771.958C456.358 771.948 456.358 771.933 456.358 771.913C456.358 771.873 456.358 771.813 456.359 771.733C456.36 771.573 456.361 771.335 456.362 771.02C456.365 770.391 456.37 769.457 456.375 768.237C456.387 765.797 456.403 762.214 456.423 757.641C456.464 748.496 456.52 735.393 456.582 719.563C456.707 687.902 456.856 645.329 456.956 601.682C457.155 514.411 457.155 422.784 456.357 405.567L454.359 405.659C455.155 422.813 455.155 514.363 454.956 601.677C454.856 645.323 454.707 687.895 454.582 719.555C454.52 735.385 454.464 748.487 454.423 757.632C454.403 762.205 454.387 765.788 454.375 768.227C454.37 769.447 454.365 770.381 454.362 771.011C454.361 771.325 454.36 771.564 454.359 771.723C454.359 771.803 454.358 771.863 454.358 771.903C454.358 771.924 454.358 771.939 454.358 771.949C454.358 771.954 454.358 771.958 454.358 771.96C454.358 771.963 454.358 771.964 455.358 771.969ZM577.123 770.969H455.358V772.969H577.123V770.969ZM576.123 567.379V771.969H578.123V567.379H576.123ZM580.203 537.282C576.902 545.309 576.123 556.427 576.123 567.379H578.123C578.123 556.435 578.915 545.671 582.053 538.043L580.203 537.282ZM643.605 492.13C609.425 492.13 589.1 515.179 580.201 537.289L582.056 538.036C590.765 516.399 610.51 494.13 643.605 494.13V492.13ZM706.297 575.977C706.297 551.259 701.877 530.313 691.8 515.52C681.679 500.663 665.93 492.13 643.605 492.13V494.13C665.34 494.13 680.437 502.393 690.147 516.646C699.9 530.963 704.297 551.441 704.297 575.977H706.297ZM706.297 771.969V575.977H704.297V771.969H706.297Z" fill="black" mask="url(#path-3-inside-1)"/>
</g>
</g>
<defs>
<filter id="filter0_d" x="0" y="0" width="1050" height="1050" filterUnits="userSpaceOnUse" color-interpolation-filters="sRGB">
<feFlood flood-opacity="0" result="BackgroundImageFix"/>
<feColorMatrix in="SourceAlpha" type="matrix" values="0 0 0 0 0 0 0 0 0 0 0 0 0 0 0 0 0 0 127 0"/>
<feOffset dy="4"/>
<feGaussianBlur stdDeviation="12.5"/>
<feColorMatrix type="matrix" values="0 0 0 0 0 0 0 0 0 0 0 0 0 0 0 0 0 0 1 0"/>
<feBlend mode="normal" in2="BackgroundImageFix" result="effect1_dropShadow"/>
<feBlend mode="normal" in="SourceGraphic" in2="effect1_dropShadow" result="shape"/>
</filter>
<filter id="filter1_d" x="234" y="208" width="618.054" height="592.969" filterUnits="userSpaceOnUse" color-interpolation-filters="sRGB">
<feFlood flood-opacity="0" result="BackgroundImageFix"/>
<feColorMatrix in="SourceAlpha" type="matrix" values="0 0 0 0 0 0 0 0 0 0 0 0 0 0 0 0 0 0 127 0"/>
<feOffset dy="4"/>
<feGaussianBlur stdDeviation="12.5"/>
<feColorMatrix type="matrix" values="0 0 0 0 0 0 0 0 0 0 0 0 0 0 0 0 0 0 0.5 0"/>
<feBlend mode="normal" in2="BackgroundImageFix" result="effect1_dropShadow"/>
<feBlend mode="normal" in="SourceGraphic" in2="effect1_dropShadow" result="shape"/>
</filter>
</defs>
</svg>
